<svg viewBox="0 0 418.98 218.82" xmlns="http://www.w3.org/2000/svg"><path d="m91.52 18.44c6.06 8.47 13.89 21.65 16.51 36.09l-8.63.47z" fill="#fff"/><path d="m158 201.84a38.41 38.41 0 0 1 -4.49-34.91c4.9-13.76 11.3-29.92 19-48a159.11 159.11 0 0 1 18.59-32.85c-8.49-14.9-16.75-22.59-28.92-27.13a4.09 4.09 0 0 1 -2-1.59c-22.08-33.65-44.1-50.13-65.47-49 7.25 9.22 19.88 28 22.08 48.89a4.1 4.1 0 0 1 -3.79 4.47l-12.19.72c1.94 15.91 6.64 70-16.1 89.14a36.16 36.16 0 0 1 -23.89 8.59c-14.09 0-27.87-7-36.46-13.33a195.89 195.89 0 0 0 -13.92 14.16c3.78-.17 12-.49 13.26.72 1.43 1.44.43 13.61-6.06 20.58 4.55 6.32 10.11 15.08 14 18.16 3.12 2.46 6.2 3.48 8.87 5.41l3.24 1.52c.71.51 2 2 2.82 2.16l12.33 3.69h3.24l104-2.64a38.84 38.84 0 0 1 -8.14-8.76z" fill="#fff"/><g fill="#f8d6a8"><path d="m91.17 55.9-5.34-23.23c-7-4.17-12.87-5.22-16.56-5.36l9.38 34.69a73.11 73.11 0 0 1 12.52-6.1z"/><path d="m227.23 170.76c-4.89-13.82-11.36-30.19-19.22-48.65-4.69-11-8.75-20.25-12.62-28a153.66 153.66 0 0 0 -15.28 28c-7.65 18-14 34-18.84 47.57a30.62 30.62 0 0 0 27.84 40.9h9.89a29.91 29.91 0 0 0 28.26-39.82z"/><path d="m79.4 145.31c9.18-7.71 14.32-24.83 14.87-49.52a237.76 237.76 0 0 0 -1.47-30.94l-13.91 6.7c-10.36 6.87-24.36 18.82-39.89 39.5-.2 1.07-.5 2.61-.88 4.41-1.08 8.53-3.69 18.72-8.13 25.3 8.54 5.88 31.83 19.32 49.41 4.55zm-34.48-15.12c0-5.5 2.11-10 7.6-10s17 4.45 17 10-11.48 9.94-17 9.94-7.6-4.45-7.6-9.94z"/><path d="m376.82 139.11c-.94-2.71-.76-4.46.14-5.54-3.82-.93-7.87-1.79-12.24-2.49a4.22 4.22 0 0 1 -.86-.24c-.58-.23-14.16-5.8-17.93-19-.59-2.09-1.12-4.43-1.68-6.91-4.16-18.5-10.39-46.09-62.16-49.49a253.88 253.88 0 0 1 12.37 38.56c7.42 31.81 6.78 58.79-1.9 80.19a75.09 75.09 0 0 1 -30.56 36.17h117.39c2.31-.94 16.81-8.17 27.27-44.26-8.81-5.24-26.21-16.64-29.84-26.99zm-48.3-4.24c-5.49 0-7.6-9.14-7.6-14.63s2.11-9.95 7.6-9.95a9.94 9.94 0 0 1 10 9.95c-.05 5.49-4.52 14.63-10 14.63z"/></g><path d="m52.3 182.28a3.51 3.51 0 0 1 -.08-7c16.23-.38 61-4.73 72.89-20.17a3.51 3.51 0 0 1 5.56 4.3c-16.41 21.23-75.77 22.83-78.29 22.89z" fill="#082e4c"/><path d="m89.28 197.63a243.92 243.92 0 0 1 -37.47-3.15 3.51 3.51 0 0 1 1.2-6.92c16 2.77 60.73 7.14 75.41-5.7a3.51 3.51 0 1 1 4.63 5.28c-9.44 8.25-27.23 10.49-43.77 10.49z" fill="#082e4c"/><path d="m285 171.08c17.43-43-5.65-101.5-11.83-115.75-30.39.84-55.9 12-72.25 31.56 4.53 8.63 9.19 19.13 14.67 32 7.93 18.62 14.41 35.11 19.41 49.11a37.56 37.56 0 0 1 -4.8 34.61 38.91 38.91 0 0 1 -7.49 8h20.52c20.29-7.93 34.35-21.22 41.77-39.53z" fill="#fff"/><path d="m275.75 51.07-.11-.22c68.72 1.67 69.2 42 74.27 59.68 3.26 11.42 15.5 16.32 15.5 16.32 20.07 3.25 34.59 9.39 43.59 13.15a9.55 9.55 0 0 1 5.89 9.08 9.82 9.82 0 0 1 -.19 1.61c-11.92 58.25-34.61 63.82-34.61 63.82h-135.51c90-34.93 33.8-157.69 31.17-163.44z" fill="none" stroke="#082e4c" stroke-miterlimit="10" stroke-width="8.2"/><path d="m338.51 120.28c0 5.49-4.46 14.64-9.95 14.64s-7.56-9.15-7.56-14.64 2.11-10 7.61-10a10 10 0 0 1 9.9 10z" fill="#082e4c"/><path d="m69.54 130.23c0 5.49-11.49 10-17 10s-7.61-4.46-7.61-10 2.11-9.95 7.61-9.95 17 4.45 17 9.95z" fill="#082e4c"/><path d="m385 130.19 24.74 13.27a7.56 7.56 0 0 1 3.83 7.31l-1.78 18.3s-30.07-15.93-35-29.92 8.21-8.96 8.21-8.96z" fill="#082e4c"/><path d="m60.43 214.58c.55.06 128.65.14 128.65.14h9.92a34 34 0 0 0 32.12-45.29c-4.46-12.6-10.68-28.6-19.31-48.89-5.89-13.82-10.84-25-15.8-34.07a151.66 151.66 0 0 0 -19.65 34.07c-8.39 19.71-14.49 35.37-18.93 47.81a34.72 34.72 0 0 0 31.64 46.37h191s22.7-5.57 34.62-63.83a10.3 10.3 0 0 0 .18-1.82 9.53 9.53 0 0 0 -5.87-8.85c-9-3.75-23.52-9.89-43.6-13.15 0 0-12.24-4.89-15.5-16.32-5.05-17.75-5.54-57.95-74.15-59.68h-.11c4.17.93-48.64-4.34-79.64 35.4-9-16.43-17.92-25.93-32.37-31.32-36.63-55.82-65.08-52.51-76.78-49.83.85.91 23 25 25.91 52.34l-16.59 1-.17.04-6.52-28.58c-14.48-9.29-25.43-6.47-25.43-6.47l12.12 44.73 20-9.64v-.08l-11-51.08a1.88 1.88 0 0 1 1.69-2.23 1.88 1.88 0 0 0 -1.86 2.19l4.45 22.58 6.55 28.58-19.82 9.67-5.66 3.85s-35 28.2-36.09 40.09-4.87 24.33-10.27 29.2-18.92 17.84-20 21.62 16.76 30.64 26.49 38.3c-.01.01 10.58 11.01 29.78 13.15z" fill="none" stroke="#082e4c" stroke-linecap="round" stroke-linejoin="round" stroke-width="8.2"/><path d="m6.78 161.09s15.44-.87 16.92.61 0 14.87-7.09 21.67c0 0-11.84-12.73-9.83-22.28z" fill="#082e4c"/><path d="m24.15 141.52s33.18 27.75 57.92 7 14.11-89.79 14.11-89.79-27.18 5.17-60.96 50.68c0 0-4.65 26.09-11.07 32.11z" fill="none" stroke="#082e4c" stroke-linecap="round" stroke-linejoin="round" stroke-width="8.2"/><circle cx="354.36" cy="192.71" fill="#082e4c" r="5.25"/><circle cx="369.7" cy="176.54" fill="#082e4c" r="5.25"/><circle cx="339.3" cy="176.54" fill="#082e4c" r="5.25"/></svg>