<svg viewBox="0 0 432 432" xmlns="http://www.w3.org/2000/svg"><g fill="none" stroke="#fff" stroke-miterlimit="10" stroke-width="6"><path d="m267.09 45.08c-3.59-2.89-8-6-11.91-9.64-28.29-26.44-69.18-28.44-96.83-3.76-21.4 19.1-28.5 43.77-24.46 71.75 3.36 23.27 12.4 44.51 24.49 64.48 25.62 42.25 61.76 73.09 104.7 96.51 2.55 1.39 4.63 1.1 7.07-.25 51.85-28.55 93.29-67.09 117.38-122.26 8.34-19.11 14.19-38.88 12.05-60-2.58-25.3-14.14-45.48-36.45-58.36-26.38-15.23-58.25-11.31-82.64 9.52-5 4.27-9.81 8.78-13.4 12.01zm-38.8 286.28.06-1.25c7.08-.33 14.19-1.27 21.22-.87 24.11 1.36 48.2 3.2 72.29 4.85a21.26 21.26 0 0 0 19.43-8.89 58 58 0 0 0 5.89-10.64c2.2-4.81 1.6-9.51-1.17-14.06-4.22-7-10.83-10.4-18.23-12.68a243.7 243.7 0 0 0 -57.93-10.13c-15.84-.9-30.94-3.36-45.2-11.33a136.19 136.19 0 0 0 -63.09-17.57c-28.26-.79-55.56 4.34-82.56 12.21-4.61 1.34-6.34 4.08-6.35 9.2q0 39.21 0 78.42c0 6.78 3.14 9.67 9.76 10.77 7.84 1.31 15.78 2.72 23.24 5.32 8.45 2.95 16.44 7.2 24.58 11 26.46 12.32 52.85 24.78 79.38 37 5.31 2.44 11 5.14 16.69 5.43a181 181 0 0 0 32.25-1.19c23.66-3.1 47.14-7.52 70.8-10.51 11.16-1.4 21.36-4.34 30.65-10.59 11.41-7.68 22.95-15.2 34.21-23.11a178.28 178.28 0 0 0 17.06-13.71 26.55 26.55 0 0 0 6.23-8.82c3.08-7 2.08-9.12-4.5-12.68-.31-.16-.45-.63-.78-1.1 1.13-1.29 2.25-2.53 3.31-3.8 5.32-6.34 4.64-13.67-2.52-17.86a29.45 29.45 0 0 0 -13.42-4.06c-14.47-.44-26.25 6.33-36.5 15.86a62.39 62.39 0 0 1 -31.4 16.13 248.55 248.55 0 0 1 -52.81 4.25c-18.41-.57-34.12-9.21-50.59-15.59zm-213.8-21.36q0 29.28 0 58.56c0 6.49 2.73 9.36 9.12 9.42q13.9.15 27.8 0c6.36-.06 9.17-3 9.17-9.39q0-59 0-117.95c0-6.33-2.92-9.22-9.31-9.26-9.13-.05-18.26 0-27.38 0-6.49 0-9.4 3-9.41 9.63q-.02 29.48.01 58.99z"/><path d="m267.09 45.08c3.59-3.23 8.4-7.74 13.4-12 24.39-20.83 56.26-24.75 82.64-9.52 22.31 12.87 33.87 33.05 36.45 58.34 2.14 21.13-3.71 40.9-12.05 60-24.09 55.18-65.53 93.72-117.38 122.27-2.44 1.35-4.52 1.64-7.07.25-42.94-23.42-79.08-54.26-104.7-96.51-12.09-20-21.13-41.21-24.49-64.48-4-28 3.06-52.65 24.46-71.75 27.65-24.68 68.54-22.68 96.83 3.76 3.91 3.65 8.32 6.75 11.91 9.64z"/><path d="m228.29 331.36c16.47 6.38 32.18 15 50.59 15.48a248.55 248.55 0 0 0 52.81-4.25 62.39 62.39 0 0 0 31.4-16.13c10.25-9.53 22-16.3 36.5-15.86a29.45 29.45 0 0 1 13.41 4.06c7.16 4.19 7.84 11.52 2.52 17.86-1.06 1.27-2.18 2.51-3.31 3.8.33.47.47.94.78 1.1 6.58 3.56 7.58 5.7 4.5 12.68a26.55 26.55 0 0 1 -6.23 8.82 178.28 178.28 0 0 1 -17.06 13.71c-11.26 7.91-22.8 15.43-34.21 23.11-9.29 6.25-19.49 9.19-30.65 10.59-23.66 3-47.14 7.41-70.8 10.51a181 181 0 0 1 -32.24 1.16c-5.65-.29-11.38-3-16.69-5.43-26.53-12.17-52.92-24.63-79.38-37-8.14-3.79-16.13-8-24.58-11-7.46-2.6-15.4-4-23.24-5.32-6.62-1.1-9.75-4-9.76-10.77q0-39.21 0-78.42c0-5.12 1.74-7.86 6.35-9.2 27-7.82 54.3-13 82.56-12.16a136.19 136.19 0 0 1 63.09 17.57c14.26 8 29.36 10.43 45.2 11.33a243.7 243.7 0 0 1 57.93 10.13c7.4 2.28 14 5.72 18.23 12.68 2.77 4.55 3.37 9.25 1.17 14.06a58 58 0 0 1 -5.89 10.64 21.26 21.26 0 0 1 -19.43 8.89c-24.09-1.65-48.18-3.49-72.29-4.85-7-.4-14.14.54-21.22.87z"/><path d="m14.49 310q0-29.49 0-59c0-6.62 2.92-9.6 9.41-9.63 9.12 0 18.25-.05 27.38 0 6.39 0 9.31 2.93 9.31 9.26q0 59 0 118c0 6.44-2.81 9.33-9.17 9.39q-13.9.12-27.8 0c-6.39-.06-9.12-2.93-9.12-9.42q-.04-29.34-.01-58.6z"/></g></svg>